<?xml version="1.0" standalone="no"?> <svg xmlns="http://www.w3.org/2000/svg" id="DocOps-6c9b7309-8448-425f-9251-6c7c2ec45b96" xmlns:xlink="http://www.w3.org/1999/xlink" viewBox="0 0 960 1290" > <defs> <filter id="dropShadow" height="112%"> <feGaussianBlur in="SourceAlpha" stdDeviation="1"/> <feOffset dx="1" dy="3" result="offsetblur"/> <feComponentTransfer> <feFuncA type="linear" slope="0.1"/> </feComponentTransfer> <feMerge> <feMergeNode/> <feMergeNode in="SourceGraphic"/> </feMerge> </filter> <filter id="filter"> <feMorphology in="SourceAlpha" operator="dilate" radius="2" result="OUTLINE"/> <feComposite operator="out" in="OUTLINE" in2="SourceAlpha"/> </filter> <linearGradient id="linear-gradient-0" gradientUnits="userSpaceOnUse" x1="162.375" y1="40.053" x2="162.375" y2="9.99"> <stop offset="0" stop-color="#ff857a" stop-opacity="1"/> <stop offset="1" stop-color="#f0a2b7" stop-opacity="1"/> </linearGradient> <linearGradient id="linear-gradient-1" gradientUnits="userSpaceOnUse" x1="471.482" y1="39.988" x2="471.482" y2="9.983"> <stop offset="0" stop-color="#ffa801" stop-opacity="1"/> <stop offset="1" stop-color="#ffcc01" stop-opacity="1"/> </linearGradient> <linearGradient id="linear-gradient-2" gradientUnits="userSpaceOnUse" x1="781.482" y1="39.988" x2="781.482" y2="9.983"> <stop offset="0" stop-color="#cb43f6" stop-opacity="1"/> <stop offset="1" stop-color="#ec4cbd" stop-opacity="1"/> </linearGradient> <linearGradient id="linear-gradient-3" gradientUnits="userSpaceOnUse" x1="162.375" y1="80.053" x2="162.375" y2="49.99"> <stop offset="0" stop-color="#ff857a" stop-opacity="1"/> <stop offset="1" stop-color="#f0a2b7" stop-opacity="1"/> </linearGradient> <linearGradient id="linear-gradient-4" gradientUnits="userSpaceOnUse" x1="471.482" y1="79.988" x2="471.482" y2="49.983"> <stop offset="0" stop-color="#ffa801" stop-opacity="1"/> <stop offset="1" stop-color="#ffcc01" stop-opacity="1"/> </linearGradient> <linearGradient id="linear-gradient-5" gradientUnits="userSpaceOnUse" x1="781.482" y1="79.988" x2="781.482" y2="49.983"> <stop offset="0" stop-color="#cb43f6" stop-opacity="1"/> <stop offset="1" stop-color="#ec4cbd" stop-opacity="1"/> </linearGradient> <linearGradient xmlns="http://www.w3.org/2000/svg" id="my-cool-gradient" x2="1" y2="1"> <stop offset="0%" stop-color="#447799"/> <stop offset="50%" stop-color="#224488"/> <stop offset="100%" stop-color="#112266"/> </linearGradient> <linearGradient xmlns="http://www.w3.org/2000/svg" id="my-warm-gradient" x2="1" y2="1"> <stop offset="0%" stop-color="#CC7744"/> <stop offset="50%" stop-color="#992244"/> <stop offset="100%" stop-color="#661133"/> </linearGradient> <linearGradient id="my-cool-gradient-1" x2="1" y2="1"> <stop offset="0%" stop-color="#447799" /> <stop offset="50%" stop-color="#224488" /> <stop offset="100%" stop-color="#112266" /> </linearGradient> <linearGradient id="my-cool-gradient-2" x2="1" y2="1"> <stop offset="0%" stop-color="gold" /> <stop offset="50%" stop-color="red" /> <stop offset="100%" stop-color="#112266" /> </linearGradient> <linearGradient id="IDc928525c-3820-4779-8e2a-4d48a7c2feb8" x2="1" y2="1"> <stop class="stop1" offset="0%" stop-color="#7fbb7f"/> <stop class="stop2" offset="50%" stop-color="#3f993f"/> <stop class="stop3" offset="100%" stop-color="#007700"/> </linearGradient> <linearGradient id="IDc928525c-3820-4779-8e2a-4d48a7c2feb8" x2="1" y2="1"> <stop class="stop1" offset="0%" stop-color="#7fbb7f"/> <stop class="stop2" offset="50%" stop-color="#3f993f"/> <stop class="stop3" offset="100%" stop-color="#007700"/> </linearGradient> <linearGradient id="IDc928525c-3820-4779-8e2a-4d48a7c2feb8" x2="1" y2="1"> <stop class="stop1" offset="0%" stop-color="#7fbb7f"/> <stop class="stop2" offset="50%" stop-color="#3f993f"/> <stop class="stop3" offset="100%" stop-color="#007700"/> </linearGradient> <linearGradient id="IDc928525c-3820-4779-8e2a-4d48a7c2feb8" x2="1" y2="1"> <stop class="stop1" offset="0%" stop-color="#7fbb7f"/> <stop class="stop2" offset="50%" stop-color="#3f993f"/> <stop class="stop3" offset="100%" stop-color="#007700"/> </linearGradient> <linearGradient id="IDc928525c-3820-4779-8e2a-4d48a7c2feb8" x2="1" y2="1"> <stop class="stop1" offset="0%" stop-color="#7fbb7f"/> <stop class="stop2" offset="50%" stop-color="#3f993f"/> <stop class="stop3" offset="100%" stop-color="#007700"/> </linearGradient> <linearGradient id="IDc928525c-3820-4779-8e2a-4d48a7c2feb8" x2="1" y2="1"> <stop class="stop1" offset="0%" stop-color="#7fbb7f"/> <stop class="stop2" offset="50%" stop-color="#3f993f"/> <stop class="stop3" offset="100%" stop-color="#007700"/> </linearGradient> <linearGradient id="IDc928525c-3820-4779-8e2a-4d48a7c2feb8" x2="1" y2="1"> <stop class="stop1" offset="0%" stop-color="#7fbb7f"/> <stop class="stop2" offset="50%" stop-color="#3f993f"/> <stop class="stop3" offset="100%" stop-color="#007700"/> </linearGradient> <linearGradient id="IDc928525c-3820-4779-8e2a-4d48a7c2feb8" x2="1" y2="1"> <stop class="stop1" offset="0%" stop-color="#7fbb7f"/> <stop class="stop2" offset="50%" stop-color="#3f993f"/> <stop class="stop3" offset="100%" stop-color="#007700"/> </linearGradient> <linearGradient id="IDc928525c-3820-4779-8e2a-4d48a7c2feb8" x2="1" y2="1"> <stop class="stop1" offset="0%" stop-color="#7fbb7f"/> <stop class="stop2" offset="50%" stop-color="#3f993f"/> <stop class="stop3" offset="100%" stop-color="#007700"/> </linearGradient> <circle id="myCircle" cx="0" cy="0" r="60" class="card" stroke="black" stroke-width="1"/> <rect id="legendRect" x="0" y="0" width="10" height="10" class="legend"/> <rect id="mySlimRect" x="0" y="0" width="150" height="150" rx="5" ry="5" class="card"/> <rect id="myLargeRect" fill="#fffefa" x="0" y="0" width="300" height="400" rx="20" ry="20" class="card" filter="url(#dropShadow)"> <title class="description"/> </rect> <rect id="myLargerHeroRect" x="0" y="0" width="300" height="191" rx="20" ry="20" class="card"/> <rect id="myPanel" x="0" y="0" width="300" height="30" rx="5" ry="5" class="card"/> </defs> <style> #DocOps-6c9b7309-8448-425f-9251-6c7c2ec45b96 rect.card { pointer-events: bounding-box; opacity: 1; } #DocOps-6c9b7309-8448-425f-9251-6c7c2ec45b96 .card { pointer-events: bounding-box; opacity: 1; } #DocOps-6c9b7309-8448-425f-9251-6c7c2ec45b96 .card:hover { transition: mask-position 2s ease,-webkit-mask-position 2s ease; -webkit-mask-position: 120%; mask-position: 120%; opacity: 1;} #DocOps-6c9b7309-8448-425f-9251-6c7c2ec45b96 .headline { font-family: Helvetica, Arial, sans-serif; fill: #46494d; } #DocOps-6c9b7309-8448-425f-9251-6c7c2ec45b96 .link { font-family: Helvetica, Arial, sans-serif; fill: #335D79; } #DocOps-6c9b7309-8448-425f-9251-6c7c2ec45b96 .description { font-size: 9pt; font-family: Helvetica, Arial, sans-serif; } #DocOps-6c9b7309-8448-425f-9251-6c7c2ec45b96 .category { font-size: 10pt; font-family: Helvetica, Arial, sans-serif; } #DocOps-6c9b7309-8448-425f-9251-6c7c2ec45b96 .longdesc { font-family: Helvetica, Arial, sans-serif; font-size: 9pt; } #DocOps-6c9b7309-8448-425f-9251-6c7c2ec45b96 .legendText { font-size: 9pt; font-family: Helvetica, Arial, sans-serif; } @keyframes draw { 0% { stroke-dasharray: 140 540; stroke-dashoffset: -474; stroke-width:3px; } 100%{ stroke-dasharray: 760; stroke-dashoffset:0; stroke-width:3px; } } #DocOps-6c9b7309-8448-425f-9251-6c7c2ec45b96 .shape{ stroke:black;} .IDc928525c-3820-4779-8e2a-4d48a7c2feb8_cls { fill: url(#IDc928525c-3820-4779-8e2a-4d48a7c2feb8); } .IDc928525c-3820-4779-8e2a-4d48a7c2feb8_cls { fill: url(#IDc928525c-3820-4779-8e2a-4d48a7c2feb8); } .IDc928525c-3820-4779-8e2a-4d48a7c2feb8_cls { fill: url(#IDc928525c-3820-4779-8e2a-4d48a7c2feb8); } .IDc928525c-3820-4779-8e2a-4d48a7c2feb8_cls { fill: url(#IDc928525c-3820-4779-8e2a-4d48a7c2feb8); } .IDc928525c-3820-4779-8e2a-4d48a7c2feb8_cls { fill: url(#IDc928525c-3820-4779-8e2a-4d48a7c2feb8); } .IDc928525c-3820-4779-8e2a-4d48a7c2feb8_cls { fill: url(#IDc928525c-3820-4779-8e2a-4d48a7c2feb8); } .IDc928525c-3820-4779-8e2a-4d48a7c2feb8_cls { fill: url(#IDc928525c-3820-4779-8e2a-4d48a7c2feb8); } .IDc928525c-3820-4779-8e2a-4d48a7c2feb8_cls { fill: url(#IDc928525c-3820-4779-8e2a-4d48a7c2feb8); } .IDc928525c-3820-4779-8e2a-4d48a7c2feb8_cls { fill: url(#IDc928525c-3820-4779-8e2a-4d48a7c2feb8); } #DocOps-6c9b7309-8448-425f-9251-6c7c2ec45b96 .btnclass1 {font-family:Arial, Helvetica, sans-serif;font-size:11px;fill:#ffffff;letter-spacing:normal;} .glass { overflow: hidden; color: white; text-shadow: 0 1px 2px rgba(0, 0, 0, 0.7); background-image: radial-gradient(circle at center, rgba(0, 167, 225, 0.25), rgba(0, 110, 149, 0.5)); box-shadow: 0 5px 10px rgba(0, 0, 0, 0.75), inset 0 0 0 2px rgba(0, 0, 0, 0.3), inset 0 -6px 6px -3px rgba(0, 129, 174, 0.2); position: relative; } .glass:after { content: ""; background: rgba(0, 167, 225, 0.2); display: block; position: absolute; z-index: 0; height: 100%; width: 100%; top: 0; left: 0; backdrop-filter: blur(3px) saturate(400%); -webkit-backdrop-filter: blur(3px) saturate(400%); } .glass:before { content: ""; display: block; position: absolute; width: calc(100% - 4px); height: 35px; background-image: linear-gradient(rgba(255, 255, 255, 0.7), rgba(255, 255, 255, 0)); top: 2px; left: 2px; border-radius: 30px 30px 200px 200px; opacity: 0.7; } .glass:hover { text-shadow: 0 1px 2px rgba(0, 0, 0, 0.9); } .glass:hover:before { opacity: 1; } .glass:active { text-shadow: 0 0 2px rgba(0, 0, 0, 0.9); box-shadow: 0 3px 8px rgba(0, 0, 0, 0.75), inset 0 0 0 2px rgba(0, 0, 0, 0.3), inset 0 -6px 6px -3px rgba(0, 129, 174, 0.2); } .glass:active:before { height: 25px; } </style><svg> <a xlink:href="https://docops.io/" target="_top"> <g class="glass" transform="translate(10,10)" id="largePanelId"> <path d="M 0 10.0 A 10.0 10.0 0 0 1 10.0 0 L 290.0 0 A 10.0 10.0 0 0 1 300.0 10.0 L 300.0 378.0 A 22.0 22.0 0 0 1 278.0 400.0 L 22.0 400.0 A 22.0 22.0 0 0 1 0 378.0 Z" filter="url(#dropShadow)" class="card shape" fill="#ffffff" stroke-width="2" stroke="black" stroke-dasharray="2000" stroke-dashoffset="2000" ><title class="description">This is a description.</title> <animate id="p1" attributeName="stroke-dashoffset" begin="mouseover" end="mouseout" values="2037;0;2037" dur="2.5s" calcMode="linear" repeatCount="indefinite" /> </path> </g> <g transform="translate(10,10)"> <path d="M 0 10.0 A 10.0 10.0 0 0 1 10.0 0 L 290.0 0 A 10.0 10.0 0 0 1 300.0 10.0 L 300.0 191.0 A 0.0 0.0 0 0 1 300.0 191.0 L 0.0 191.0 A 0.0 0.0 0 0 1 0 191.0 Z" class="card IDc928525c-3820-4779-8e2a-4d48a7c2feb8_cls" fill="#007700" filter="url(#dropShadow)"/> </g> </a><a xlink:href="https://docops.io/" href="https://docops.io/" class="btnclass1"> <text x="20" y="230" class="link" fill="#000" opacity="0.25">Title</text> <text x="21" y="229" class="title link">Title</text> </a> <text x="20" y="244" class="category btnclass1"><tspan x="20" dy="0">Render Test </tspan></text> <text x="20" y="250" class="longdesc"> <tspan x="20" dy="18" class="author">Steve Roach</tspan><tspan x="20" dy="18" class="author">Mike Duffy</tspan><tspan x="20" dy="18" class="author">Ian Cooper Rose</tspan> <tspan x="20" dy="18" class="date">1969-12-22</tspan><tspan x="20" dy="18" class="longdesc">This is a description. </tspan></text> <a xlink:href="https://docops.io/" target="_top"> <g class="glass" transform="translate(330,10)" id="largePanelId"> <path d="M 0 10.0 A 10.0 10.0 0 0 1 10.0 0 L 290.0 0 A 10.0 10.0 0 0 1 300.0 10.0 L 300.0 378.0 A 22.0 22.0 0 0 1 278.0 400.0 L 22.0 400.0 A 22.0 22.0 0 0 1 0 378.0 Z" filter="url(#dropShadow)" class="card shape" fill="#ffffff" stroke-width="2" stroke="black" stroke-dasharray="2000" stroke-dashoffset="2000" ><title class="description">This is a description.</title> <animate id="p1" attributeName="stroke-dashoffset" begin="mouseover" end="mouseout" values="2037;0;2037" dur="2.5s" calcMode="linear" repeatCount="indefinite" /> </path> </g> <g transform="translate(330,10)"> <path d="M 0 10.0 A 10.0 10.0 0 0 1 10.0 0 L 290.0 0 A 10.0 10.0 0 0 1 300.0 10.0 L 300.0 191.0 A 0.0 0.0 0 0 1 300.0 191.0 L 0.0 191.0 A 0.0 0.0 0 0 1 0 191.0 Z" class="card IDc928525c-3820-4779-8e2a-4d48a7c2feb8_cls" fill="#007700" filter="url(#dropShadow)"/> </g> </a><a xlink:href="https://docops.io/" href="https://docops.io/" class="btnclass1"> <text x="340" y="230" class="link" fill="#000" opacity="0.25">Title</text> <text x="341" y="229" class="title link">Title</text> </a> <text x="340" y="244" class="category btnclass1"><tspan x="340" dy="0">Render Test </tspan></text> <text x="340" y="250" class="longdesc"> <tspan x="340" dy="18" class="author">Steve Roach</tspan><tspan x="340" dy="18" class="author">Mike Duffy</tspan><tspan x="340" dy="18" class="author">Ian Cooper Rose</tspan> <tspan x="340" dy="18" class="date">1969-12-22</tspan><tspan x="340" dy="18" class="longdesc">This is a description. </tspan></text> <a xlink:href="https://docops.io/" target="_top"> <g class="glass" transform="translate(650,10)" id="largePanelId"> <path d="M 0 10.0 A 10.0 10.0 0 0 1 10.0 0 L 290.0 0 A 10.0 10.0 0 0 1 300.0 10.0 L 300.0 378.0 A 22.0 22.0 0 0 1 278.0 400.0 L 22.0 400.0 A 22.0 22.0 0 0 1 0 378.0 Z" filter="url(#dropShadow)" class="card shape" fill="#ffffff" stroke-width="2" stroke="black" stroke-dasharray="2000" stroke-dashoffset="2000" ><title class="description">This is a description.</title> <animate id="p1" attributeName="stroke-dashoffset" begin="mouseover" end="mouseout" values="2037;0;2037" dur="2.5s" calcMode="linear" repeatCount="indefinite" /> </path> </g> <g transform="translate(650,10)"> <path d="M 0 10.0 A 10.0 10.0 0 0 1 10.0 0 L 290.0 0 A 10.0 10.0 0 0 1 300.0 10.0 L 300.0 191.0 A 0.0 0.0 0 0 1 300.0 191.0 L 0.0 191.0 A 0.0 0.0 0 0 1 0 191.0 Z" class="card IDc928525c-3820-4779-8e2a-4d48a7c2feb8_cls" fill="#007700" filter="url(#dropShadow)"/> </g> </a><a xlink:href="https://docops.io/" href="https://docops.io/" class="btnclass1"> <text x="660" y="230" class="link" fill="#000" opacity="0.25">Title</text> <text x="661" y="229" class="title link">Title</text> </a> <text x="660" y="244" class="category btnclass1"><tspan x="660" dy="0">Render Test </tspan></text> <text x="660" y="250" class="longdesc"> <tspan x="660" dy="18" class="author">Steve Roach</tspan><tspan x="660" dy="18" class="author">Mike Duffy</tspan><tspan x="660" dy="18" class="author">Ian Cooper Rose</tspan> <tspan x="660" dy="18" class="date">1969-12-22</tspan><tspan x="660" dy="18" class="longdesc">This is a description. </tspan></text></svg><svg> <a xlink:href="https://docops.io/" target="_top"> <g class="glass" transform="translate(10,420)" id="largePanelId"> <path d="M 0 10.0 A 10.0 10.0 0 0 1 10.0 0 L 290.0 0 A 10.0 10.0 0 0 1 300.0 10.0 L 300.0 378.0 A 22.0 22.0 0 0 1 278.0 400.0 L 22.0 400.0 A 22.0 22.0 0 0 1 0 378.0 Z" filter="url(#dropShadow)" class="card shape" fill="#ffffff" stroke-width="2" stroke="black" stroke-dasharray="2000" stroke-dashoffset="2000" ><title class="description">This is a description.</title> <animate id="p1" attributeName="stroke-dashoffset" begin="mouseover" end="mouseout" values="2037;0;2037" dur="2.5s" calcMode="linear" repeatCount="indefinite" /> </path> </g> <g transform="translate(10,420)"> <path d="M 0 10.0 A 10.0 10.0 0 0 1 10.0 0 L 290.0 0 A 10.0 10.0 0 0 1 300.0 10.0 L 300.0 191.0 A 0.0 0.0 0 0 1 300.0 191.0 L 0.0 191.0 A 0.0 0.0 0 0 1 0 191.0 Z" class="card IDc928525c-3820-4779-8e2a-4d48a7c2feb8_cls" fill="#007700" filter="url(#dropShadow)"/> </g> </a><a xlink:href="https://docops.io/" href="https://docops.io/" class="btnclass1"> <text x="20" y="640" class="link" fill="#000" opacity="0.25">Title</text> <text x="21" y="639" class="title link">Title</text> </a> <text x="20" y="654" class="category btnclass1"><tspan x="20" dy="0">Render Test </tspan></text> <text x="20" y="660" class="longdesc"> <tspan x="20" dy="18" class="author">Steve Roach</tspan><tspan x="20" dy="18" class="author">Mike Duffy</tspan><tspan x="20" dy="18" class="author">Ian Cooper Rose</tspan> <tspan x="20" dy="18" class="date">1969-12-22</tspan><tspan x="20" dy="18" class="longdesc">This is a description. </tspan></text> <a xlink:href="https://docops.io/" target="_top"> <g class="glass" transform="translate(330,420)" id="largePanelId"> <path d="M 0 10.0 A 10.0 10.0 0 0 1 10.0 0 L 290.0 0 A 10.0 10.0 0 0 1 300.0 10.0 L 300.0 378.0 A 22.0 22.0 0 0 1 278.0 400.0 L 22.0 400.0 A 22.0 22.0 0 0 1 0 378.0 Z" filter="url(#dropShadow)" class="card shape" fill="#ffffff" stroke-width="2" stroke="black" stroke-dasharray="2000" stroke-dashoffset="2000" ><title class="description">This is a description.</title> <animate id="p1" attributeName="stroke-dashoffset" begin="mouseover" end="mouseout" values="2037;0;2037" dur="2.5s" calcMode="linear" repeatCount="indefinite" /> </path> </g> <g transform="translate(330,420)"> <path d="M 0 10.0 A 10.0 10.0 0 0 1 10.0 0 L 290.0 0 A 10.0 10.0 0 0 1 300.0 10.0 L 300.0 191.0 A 0.0 0.0 0 0 1 300.0 191.0 L 0.0 191.0 A 0.0 0.0 0 0 1 0 191.0 Z" class="card IDc928525c-3820-4779-8e2a-4d48a7c2feb8_cls" fill="#007700" filter="url(#dropShadow)"/> </g> </a><a xlink:href="https://docops.io/" href="https://docops.io/" class="btnclass1"> <text x="340" y="640" class="link" fill="#000" opacity="0.25">Title</text> <text x="341" y="639" class="title link">Title</text> </a> <text x="340" y="654" class="category btnclass1"><tspan x="340" dy="0">Render Test </tspan></text> <text x="340" y="660" class="longdesc"> <tspan x="340" dy="18" class="author">Steve Roach</tspan><tspan x="340" dy="18" class="author">Mike Duffy</tspan><tspan x="340" dy="18" class="author">Ian Cooper Rose</tspan> <tspan x="340" dy="18" class="date">1969-12-22</tspan><tspan x="340" dy="18" class="longdesc">This is a description. </tspan></text> <a xlink:href="https://docops.io/" target="_top"> <g class="glass" transform="translate(650,420)" id="largePanelId"> <path d="M 0 10.0 A 10.0 10.0 0 0 1 10.0 0 L 290.0 0 A 10.0 10.0 0 0 1 300.0 10.0 L 300.0 378.0 A 22.0 22.0 0 0 1 278.0 400.0 L 22.0 400.0 A 22.0 22.0 0 0 1 0 378.0 Z" filter="url(#dropShadow)" class="card shape" fill="#ffffff" stroke-width="2" stroke="black" stroke-dasharray="2000" stroke-dashoffset="2000" ><title class="description">This is a description.</title> <animate id="p1" attributeName="stroke-dashoffset" begin="mouseover" end="mouseout" values="2037;0;2037" dur="2.5s" calcMode="linear" repeatCount="indefinite" /> </path> </g> <g transform="translate(650,420)"> <path d="M 0 10.0 A 10.0 10.0 0 0 1 10.0 0 L 290.0 0 A 10.0 10.0 0 0 1 300.0 10.0 L 300.0 191.0 A 0.0 0.0 0 0 1 300.0 191.0 L 0.0 191.0 A 0.0 0.0 0 0 1 0 191.0 Z" class="card IDc928525c-3820-4779-8e2a-4d48a7c2feb8_cls" fill="#007700" filter="url(#dropShadow)"/> </g> </a><a xlink:href="https://docops.io/" href="https://docops.io/" class="btnclass1"> <text x="660" y="640" class="link" fill="#000" opacity="0.25">Title</text> <text x="661" y="639" class="title link">Title</text> </a> <text x="660" y="654" class="category btnclass1"><tspan x="660" dy="0">Render Test </tspan></text> <text x="660" y="660" class="longdesc"> <tspan x="660" dy="18" class="author">Steve Roach</tspan><tspan x="660" dy="18" class="author">Mike Duffy</tspan><tspan x="660" dy="18" class="author">Ian Cooper Rose</tspan> <tspan x="660" dy="18" class="date">1969-12-22</tspan><tspan x="660" dy="18" class="longdesc">This is a description. </tspan></text></svg><svg> <a xlink:href="https://docops.io/" target="_top"> <g class="glass" transform="translate(10,830)" id="largePanelId"> <path d="M 0 10.0 A 10.0 10.0 0 0 1 10.0 0 L 290.0 0 A 10.0 10.0 0 0 1 300.0 10.0 L 300.0 378.0 A 22.0 22.0 0 0 1 278.0 400.0 L 22.0 400.0 A 22.0 22.0 0 0 1 0 378.0 Z" filter="url(#dropShadow)" class="card shape" fill="#ffffff" stroke-width="2" stroke="black" stroke-dasharray="2000" stroke-dashoffset="2000" ><title class="description">This is a description.</title> <animate id="p1" attributeName="stroke-dashoffset" begin="mouseover" end="mouseout" values="2037;0;2037" dur="2.5s" calcMode="linear" repeatCount="indefinite" /> </path> </g> <g transform="translate(10,830)"> <path d="M 0 10.0 A 10.0 10.0 0 0 1 10.0 0 L 290.0 0 A 10.0 10.0 0 0 1 300.0 10.0 L 300.0 191.0 A 0.0 0.0 0 0 1 300.0 191.0 L 0.0 191.0 A 0.0 0.0 0 0 1 0 191.0 Z" class="card IDc928525c-3820-4779-8e2a-4d48a7c2feb8_cls" fill="#007700" filter="url(#dropShadow)"/> </g> </a><a xlink:href="https://docops.io/" href="https://docops.io/" class="btnclass1"> <text x="20" y="1050" class="link" fill="#000" opacity="0.25">Title</text> <text x="21" y="1049" class="title link">Title</text> </a> <text x="20" y="1064" class="category btnclass1"><tspan x="20" dy="0">Render Test </tspan></text> <text x="20" y="1070" class="longdesc"> <tspan x="20" dy="18" class="author">Steve Roach</tspan><tspan x="20" dy="18" class="author">Mike Duffy</tspan><tspan x="20" dy="18" class="author">Ian Cooper Rose</tspan> <tspan x="20" dy="18" class="date">1969-12-22</tspan><tspan x="20" dy="18" class="longdesc">This is a description. </tspan></text> <a xlink:href="https://docops.io/" target="_top"> <g class="glass" transform="translate(330,830)" id="largePanelId"> <path d="M 0 10.0 A 10.0 10.0 0 0 1 10.0 0 L 290.0 0 A 10.0 10.0 0 0 1 300.0 10.0 L 300.0 378.0 A 22.0 22.0 0 0 1 278.0 400.0 L 22.0 400.0 A 22.0 22.0 0 0 1 0 378.0 Z" filter="url(#dropShadow)" class="card shape" fill="#ffffff" stroke-width="2" stroke="black" stroke-dasharray="2000" stroke-dashoffset="2000" ><title class="description">This is a description.</title> <animate id="p1" attributeName="stroke-dashoffset" begin="mouseover" end="mouseout" values="2037;0;2037" dur="2.5s" calcMode="linear" repeatCount="indefinite" /> </path> </g> <g transform="translate(330,830)"> <path d="M 0 10.0 A 10.0 10.0 0 0 1 10.0 0 L 290.0 0 A 10.0 10.0 0 0 1 300.0 10.0 L 300.0 191.0 A 0.0 0.0 0 0 1 300.0 191.0 L 0.0 191.0 A 0.0 0.0 0 0 1 0 191.0 Z" class="card IDc928525c-3820-4779-8e2a-4d48a7c2feb8_cls" fill="#007700" filter="url(#dropShadow)"/> </g> </a><a xlink:href="https://docops.io/" href="https://docops.io/" class="btnclass1"> <text x="340" y="1050" class="link" fill="#000" opacity="0.25">Title</text> <text x="341" y="1049" class="title link">Title</text> </a> <text x="340" y="1064" class="category btnclass1"><tspan x="340" dy="0">Render Test </tspan></text> <text x="340" y="1070" class="longdesc"> <tspan x="340" dy="18" class="author">Steve Roach</tspan><tspan x="340" dy="18" class="author">Mike Duffy</tspan><tspan x="340" dy="18" class="author">Ian Cooper Rose</tspan> <tspan x="340" dy="18" class="date">1969-12-22</tspan><tspan x="340" dy="18" class="longdesc">This is a description. </tspan></text> <a xlink:href="https://docops.io/" target="_top"> <g class="glass" transform="translate(650,830)" id="largePanelId"> <path d="M 0 10.0 A 10.0 10.0 0 0 1 10.0 0 L 290.0 0 A 10.0 10.0 0 0 1 300.0 10.0 L 300.0 378.0 A 22.0 22.0 0 0 1 278.0 400.0 L 22.0 400.0 A 22.0 22.0 0 0 1 0 378.0 Z" filter="url(#dropShadow)" class="card shape" fill="#ffffff" stroke-width="2" stroke="black" stroke-dasharray="2000" stroke-dashoffset="2000" ><title class="description">This is a description.</title> <animate id="p1" attributeName="stroke-dashoffset" begin="mouseover" end="mouseout" values="2037;0;2037" dur="2.5s" calcMode="linear" repeatCount="indefinite" /> </path> </g> <g transform="translate(650,830)"> <path d="M 0 10.0 A 10.0 10.0 0 0 1 10.0 0 L 290.0 0 A 10.0 10.0 0 0 1 300.0 10.0 L 300.0 191.0 A 0.0 0.0 0 0 1 300.0 191.0 L 0.0 191.0 A 0.0 0.0 0 0 1 0 191.0 Z" class="card IDc928525c-3820-4779-8e2a-4d48a7c2feb8_cls" fill="#007700" filter="url(#dropShadow)"/> </g> </a><a xlink:href="https://docops.io/" href="https://docops.io/" class="btnclass1"> <text x="660" y="1050" class="link" fill="#000" opacity="0.25">Title</text> <text x="661" y="1049" class="title link">Title</text> </a> <text x="660" y="1064" class="category btnclass1"><tspan x="660" dy="0">Render Test </tspan></text> <text x="660" y="1070" class="longdesc"> <tspan x="660" dy="18" class="author">Steve Roach</tspan><tspan x="660" dy="18" class="author">Mike Duffy</tspan><tspan x="660" dy="18" class="author">Ian Cooper Rose</tspan> <tspan x="660" dy="18" class="date">1969-12-22</tspan><tspan x="660" dy="18" class="longdesc">This is a description. </tspan></text></svg><svg><use x="50%" y="1240" style="fill:#007700" class="card" xlink:href="#legendRect"/> <text x="54%" y="1250" class="legendText">Render Test</text></svg></svg>