<svg xmlns="http://www.w3.org/2000/svg" width="510.0" height="490.0" viewBox="0 0 510.0 490.0" xmlns:xlink="http://www.w3.org/1999/xlink" id="DocOps-5898da14-2304-477c-984e-388c28c00903"> <defs><filter id="buttonBlur"><feGaussianBlur in="SourceAlpha" stdDeviation="2" result="blur"/><feOffset in="blur" dy="2" result="offsetBlur"/><feMerge><feMergeNode in="offsetBlur"/><feMergeNode in="SourceGraphic"/></feMerge></filter><linearGradient id="overlayGrad" gradientUnits="userSpaceOnUse" x1="95" y1="-20" x2="95" y2="70"><stop offset="0" stop-color="#000000" stop-opacity="0.5"/><stop offset="1" stop-color="#000000" stop-opacity="0"/></linearGradient><filter id="topshineBlur"><feGaussianBlur stdDeviation="0.93"/></filter><linearGradient id="topshineGrad" gradientUnits="userSpaceOnUse" x1="95" y1="0" x2="95" y2="40"><stop offset="0" stop-color="#ffffff" stop-opacity="1"/><stop offset="1" stop-color="#ffffff" stop-opacity="0"/></linearGradient><filter id="bottomshine"><feGaussianBlur stdDeviation="0.95"/></filter><filter id="Bevel2" filterUnits="objectBoundingBox" x="-10%" y="-10%" width="150%" height="150%"><feGaussianBlur in="SourceAlpha" stdDeviation="0.5" result="blur"/><feSpecularLighting in="blur" surfaceScale="5" specularConstant="0.5" specularExponent="10" result="specOut" lighting-color="white"><fePointLight x="-5000" y="-10000" z="0000"/></feSpecularLighting><feComposite in="specOut" in2="SourceAlpha" operator="in" result="specOut2"/><feComposite in="SourceGraphic" in2="specOut2" operator="arithmetic" k1="0" k2="1" k3="1" k4="0" result="litPaint" /></filter><linearGradient id="ID5a92b986-81ad-4ca9-a61a-5be963f07be1" x2="1" y2="1"><stop class="stop1" offset="0%" stop-color="#7fbb7f"/><stop class="stop2" offset="50%" stop-color="#3f993f"/><stop class="stop3" offset="100%" stop-color="#007700"/></linearGradient><linearGradient id="ID5a92b986-81ad-4ca9-a61a-5be963f07be1" x2="1" y2="1"><stop class="stop1" offset="0%" stop-color="#7fbb7f"/><stop class="stop2" offset="50%" stop-color="#3f993f"/><stop class="stop3" offset="100%" stop-color="#007700"/></linearGradient><linearGradient id="ID5a92b986-81ad-4ca9-a61a-5be963f07be1" x2="1" y2="1"><stop class="stop1" offset="0%" stop-color="#7fbb7f"/><stop class="stop2" offset="50%" stop-color="#3f993f"/><stop class="stop3" offset="100%" stop-color="#007700"/></linearGradient><linearGradient id="ID5a92b986-81ad-4ca9-a61a-5be963f07be1" x2="1" y2="1"><stop class="stop1" offset="0%" stop-color="#7fbb7f"/><stop class="stop2" offset="50%" stop-color="#3f993f"/><stop class="stop3" offset="100%" stop-color="#007700"/></linearGradient><linearGradient id="ID5a92b986-81ad-4ca9-a61a-5be963f07be1" x2="1" y2="1"><stop class="stop1" offset="0%" stop-color="#7fbb7f"/><stop class="stop2" offset="50%" stop-color="#3f993f"/><stop class="stop3" offset="100%" stop-color="#007700"/></linearGradient><linearGradient id="ID5a92b986-81ad-4ca9-a61a-5be963f07be1" x2="1" y2="1"><stop class="stop1" offset="0%" stop-color="#7fbb7f"/><stop class="stop2" offset="50%" stop-color="#3f993f"/><stop class="stop3" offset="100%" stop-color="#007700"/></linearGradient><linearGradient id="ID5a92b986-81ad-4ca9-a61a-5be963f07be1" x2="1" y2="1"><stop class="stop1" offset="0%" stop-color="#7fbb7f"/><stop class="stop2" offset="50%" stop-color="#3f993f"/><stop class="stop3" offset="100%" stop-color="#007700"/></linearGradient><linearGradient id="ID5a92b986-81ad-4ca9-a61a-5be963f07be1" x2="1" y2="1"><stop class="stop1" offset="0%" stop-color="#7fbb7f"/><stop class="stop2" offset="50%" stop-color="#3f993f"/><stop class="stop3" offset="100%" stop-color="#007700"/></linearGradient><linearGradient id="ID5a92b986-81ad-4ca9-a61a-5be963f07be1" x2="1" y2="1"><stop class="stop1" offset="0%" stop-color="#7fbb7f"/><stop class="stop2" offset="50%" stop-color="#3f993f"/><stop class="stop3" offset="100%" stop-color="#007700"/></linearGradient><style>.glass:after,.glass:before{content:"";display:block;position:absolute}.glass{overflow:hidden;color:#fff;text-shadow:0 1px 2px rgba(0,0,0,.7);background-image:radial-gradient(circle at center,rgba(0,167,225,.25),rgba(0,110,149,.5));box-shadow:0 5px 10px rgba(0,0,0,.75),inset 0 0 0 2px rgba(0,0,0,.3),inset 0 -6px 6px -3px rgba(0,129,174,.2);position:relative}.glass:after{background:rgba(0,167,225,.2);z-index:0;height:100%;width:100%;top:0;left:0;backdrop-filter:blur(3px) saturate(400%);-webkit-backdrop-filter:blur(3px) saturate(400%)}.glass:before{width:calc(100% - 4px);height:35px;background-image:linear-gradient(rgba(255,255,255,.7),rgba(255,255,255,0));top:2px;left:2px;border-radius:30px 30px 200px 200px;opacity:.7}.glass:hover{text-shadow:0 1px 2px rgba(0,0,0,.9)}.glass:hover:before{opacity:1}.glass:active{text-shadow:0 0 2px rgba(0,0,0,.9);box-shadow:0 3px 8px rgba(0,0,0,.75),inset 0 0 0 2px rgba(0,0,0,.3),inset 0 -6px 6px -3px rgba(0,129,174,.2)}.glass:active:before{height:25px}.raise {pointer-events: bounding-box;opacity: 1;filter: drop-shadow(3px 5px 2px rgb(0 0 0 / 0.4));}.raise:hover {stroke: gold;stroke-width: 3px; opacity: 0.9;}.ID5a92b986-81ad-4ca9-a61a-5be963f07be1_cls { fill: url(#ID5a92b986-81ad-4ca9-a61a-5be963f07be1); }.ID5a92b986-81ad-4ca9-a61a-5be963f07be1_cls { fill: url(#ID5a92b986-81ad-4ca9-a61a-5be963f07be1); }.ID5a92b986-81ad-4ca9-a61a-5be963f07be1_cls { fill: url(#ID5a92b986-81ad-4ca9-a61a-5be963f07be1); }.ID5a92b986-81ad-4ca9-a61a-5be963f07be1_cls { fill: url(#ID5a92b986-81ad-4ca9-a61a-5be963f07be1); }.ID5a92b986-81ad-4ca9-a61a-5be963f07be1_cls { fill: url(#ID5a92b986-81ad-4ca9-a61a-5be963f07be1); }.ID5a92b986-81ad-4ca9-a61a-5be963f07be1_cls { fill: url(#ID5a92b986-81ad-4ca9-a61a-5be963f07be1); }.ID5a92b986-81ad-4ca9-a61a-5be963f07be1_cls { fill: url(#ID5a92b986-81ad-4ca9-a61a-5be963f07be1); }.ID5a92b986-81ad-4ca9-a61a-5be963f07be1_cls { fill: url(#ID5a92b986-81ad-4ca9-a61a-5be963f07be1); }.ID5a92b986-81ad-4ca9-a61a-5be963f07be1_cls { fill: url(#ID5a92b986-81ad-4ca9-a61a-5be963f07be1); }#DocOps-5898da14-2304-477c-984e-388c28c00903 .btnclass1 {font-family:Arial, Helvetica, sans-serif;font-size:11px;fill:#ffffff;letter-spacing:normal;}</style></defs><g transform="scale(1.0)"> <g transform="translate(10,10)" cursor="pointer"><a xlink:href="https://docops.io/" target="_top" style='text-decoration: none; font-family:Arial; fill: #fcfcfc;'><rect x="0" y="0" fill="#fcfcfc" width="150" height="150" rx="5" ry="5" stroke="#000000" class="raise"><title>Title</title></rect><path filter="url(#buttonBlur)" class="ID5a92b986-81ad-4ca9-a61a-5be963f07be1_cls" d="M 0 5.0 A 5.0 5.0 0 0 1 5.0 0 L 145.0 0 A 5.0 5.0 0 0 1 150.0 5.0 L 150.0 35.0 A 0.0 0.0 0 0 1 150.0 35.0 L 0.0 35.0 A 0.0 0.0 0 0 1 0 35.0 Z"/><path fill="url(#overlayGrad)" class="ID5a92b986-81ad-4ca9-a61a-5be963f07be1_cls" d="M 0 5.0 A 5.0 5.0 0 0 1 5.0 0 L 145.0 0 A 5.0 5.0 0 0 1 150.0 5.0 L 150.0 35.0 A 0.0 0.0 0 0 1 150.0 35.0 L 0.0 35.0 A 0.0 0.0 0 0 1 0 35.0 Z"/><text text-anchor="middle" x="75" y="0" class="glass" style="fill: #fcfcfc; font-family: Arial,Helvetica, sans-serif; font-size: 10px; font-weight: bold;"><tspan x="75" dy="12"> Title</tspan></text><rect id="buttontop" x="4" y="3" width="140" height="12" ry="18" rx="18" fill="url(#topshineGrad)" filter="url(#topshineBlur)"/><rect id="buttonbottom" x="4" y="26" width="140" height="4" fill="#ffffff" ry="18" rx="18" fill-opacity="0.3" filter="url(#bottomshine)"/><text x="0" y="38" class="btnclass1"><tspan x="2" dy="10"> This is a description.</tspan></text><path class="ID5a92b986-81ad-4ca9-a61a-5be963f07be1_cls" transform="translate(0,125)" d="M 0 0.0 A 0.0 0.0 0 0 1 0.0 0 L 150.0 0 A 0.0 0.0 0 0 1 150.0 0.0 L 150.0 20.0 A 5.0 5.0 0 0 1 144.0 25.0 L 5.0 25.0 A 5.0 5.0 0 0 1 0 20.0 Z"/><text x="145" y="135" style="fill: #555555; font-family: Arial,Helvetica, sans-serif; font-size: 10px; font-weight: bold; font-style: italic;" text-anchor="end"><tspan x="145" dy="-12">Steve Roach</tspan><tspan x="145" dy="-12">Mike Duffy</tspan><tspan x="145" dy="-12">Ian Cooper Rose</tspan></text><text x="145" y="145" style="fill: #555555; font-family: Arial,Helvetica, sans-serif; font-size: 10px; font-weight: bold;" text-anchor="end">1969-12-22</text></a></g> <g transform="translate(170,10)" cursor="pointer"><a xlink:href="https://docops.io/" target="_top" style='text-decoration: none; font-family:Arial; fill: #fcfcfc;'><rect x="0" y="0" fill="#fcfcfc" width="150" height="150" rx="5" ry="5" stroke="#000000" class="raise"><title>Title</title></rect><path filter="url(#buttonBlur)" class="ID5a92b986-81ad-4ca9-a61a-5be963f07be1_cls" d="M 0 5.0 A 5.0 5.0 0 0 1 5.0 0 L 145.0 0 A 5.0 5.0 0 0 1 150.0 5.0 L 150.0 35.0 A 0.0 0.0 0 0 1 150.0 35.0 L 0.0 35.0 A 0.0 0.0 0 0 1 0 35.0 Z"/><path fill="url(#overlayGrad)" class="ID5a92b986-81ad-4ca9-a61a-5be963f07be1_cls" d="M 0 5.0 A 5.0 5.0 0 0 1 5.0 0 L 145.0 0 A 5.0 5.0 0 0 1 150.0 5.0 L 150.0 35.0 A 0.0 0.0 0 0 1 150.0 35.0 L 0.0 35.0 A 0.0 0.0 0 0 1 0 35.0 Z"/><text text-anchor="middle" x="75" y="0" class="glass" style="fill: #fcfcfc; font-family: Arial,Helvetica, sans-serif; font-size: 10px; font-weight: bold;"><tspan x="75" dy="12"> Title</tspan></text><rect id="buttontop" x="4" y="3" width="140" height="12" ry="18" rx="18" fill="url(#topshineGrad)" filter="url(#topshineBlur)"/><rect id="buttonbottom" x="4" y="26" width="140" height="4" fill="#ffffff" ry="18" rx="18" fill-opacity="0.3" filter="url(#bottomshine)"/><text x="0" y="38" class="btnclass1"><tspan x="2" dy="10"> This is a description.</tspan></text><path class="ID5a92b986-81ad-4ca9-a61a-5be963f07be1_cls" transform="translate(0,125)" d="M 0 0.0 A 0.0 0.0 0 0 1 0.0 0 L 150.0 0 A 0.0 0.0 0 0 1 150.0 0.0 L 150.0 20.0 A 5.0 5.0 0 0 1 144.0 25.0 L 5.0 25.0 A 5.0 5.0 0 0 1 0 20.0 Z"/><text x="145" y="135" style="fill: #555555; font-family: Arial,Helvetica, sans-serif; font-size: 10px; font-weight: bold; font-style: italic;" text-anchor="end"><tspan x="145" dy="-12">Steve Roach</tspan><tspan x="145" dy="-12">Mike Duffy</tspan><tspan x="145" dy="-12">Ian Cooper Rose</tspan></text><text x="145" y="145" style="fill: #555555; font-family: Arial,Helvetica, sans-serif; font-size: 10px; font-weight: bold;" text-anchor="end">1969-12-22</text></a></g> <g transform="translate(330,10)" cursor="pointer"><a xlink:href="https://docops.io/" target="_top" style='text-decoration: none; font-family:Arial; fill: #fcfcfc;'><rect x="0" y="0" fill="#fcfcfc" width="150" height="150" rx="5" ry="5" stroke="#000000" class="raise"><title>Title</title></rect><path filter="url(#buttonBlur)" class="ID5a92b986-81ad-4ca9-a61a-5be963f07be1_cls" d="M 0 5.0 A 5.0 5.0 0 0 1 5.0 0 L 145.0 0 A 5.0 5.0 0 0 1 150.0 5.0 L 150.0 35.0 A 0.0 0.0 0 0 1 150.0 35.0 L 0.0 35.0 A 0.0 0.0 0 0 1 0 35.0 Z"/><path fill="url(#overlayGrad)" class="ID5a92b986-81ad-4ca9-a61a-5be963f07be1_cls" d="M 0 5.0 A 5.0 5.0 0 0 1 5.0 0 L 145.0 0 A 5.0 5.0 0 0 1 150.0 5.0 L 150.0 35.0 A 0.0 0.0 0 0 1 150.0 35.0 L 0.0 35.0 A 0.0 0.0 0 0 1 0 35.0 Z"/><text text-anchor="middle" x="75" y="0" class="glass" style="fill: #fcfcfc; font-family: Arial,Helvetica, sans-serif; font-size: 10px; font-weight: bold;"><tspan x="75" dy="12"> Title</tspan></text><rect id="buttontop" x="4" y="3" width="140" height="12" ry="18" rx="18" fill="url(#topshineGrad)" filter="url(#topshineBlur)"/><rect id="buttonbottom" x="4" y="26" width="140" height="4" fill="#ffffff" ry="18" rx="18" fill-opacity="0.3" filter="url(#bottomshine)"/><text x="0" y="38" class="btnclass1"><tspan x="2" dy="10"> This is a description.</tspan></text><path class="ID5a92b986-81ad-4ca9-a61a-5be963f07be1_cls" transform="translate(0,125)" d="M 0 0.0 A 0.0 0.0 0 0 1 0.0 0 L 150.0 0 A 0.0 0.0 0 0 1 150.0 0.0 L 150.0 20.0 A 5.0 5.0 0 0 1 144.0 25.0 L 5.0 25.0 A 5.0 5.0 0 0 1 0 20.0 Z"/><text x="145" y="135" style="fill: #555555; font-family: Arial,Helvetica, sans-serif; font-size: 10px; font-weight: bold; font-style: italic;" text-anchor="end"><tspan x="145" dy="-12">Steve Roach</tspan><tspan x="145" dy="-12">Mike Duffy</tspan><tspan x="145" dy="-12">Ian Cooper Rose</tspan></text><text x="145" y="145" style="fill: #555555; font-family: Arial,Helvetica, sans-serif; font-size: 10px; font-weight: bold;" text-anchor="end">1969-12-22</text></a></g> <g transform="translate(10,170)" cursor="pointer"><a xlink:href="https://docops.io/" target="_top" style='text-decoration: none; font-family:Arial; fill: #fcfcfc;'><rect x="0" y="0" fill="#fcfcfc" width="150" height="150" rx="5" ry="5" stroke="#000000" class="raise"><title>Title</title></rect><path filter="url(#buttonBlur)" class="ID5a92b986-81ad-4ca9-a61a-5be963f07be1_cls" d="M 0 5.0 A 5.0 5.0 0 0 1 5.0 0 L 145.0 0 A 5.0 5.0 0 0 1 150.0 5.0 L 150.0 35.0 A 0.0 0.0 0 0 1 150.0 35.0 L 0.0 35.0 A 0.0 0.0 0 0 1 0 35.0 Z"/><path fill="url(#overlayGrad)" class="ID5a92b986-81ad-4ca9-a61a-5be963f07be1_cls" d="M 0 5.0 A 5.0 5.0 0 0 1 5.0 0 L 145.0 0 A 5.0 5.0 0 0 1 150.0 5.0 L 150.0 35.0 A 0.0 0.0 0 0 1 150.0 35.0 L 0.0 35.0 A 0.0 0.0 0 0 1 0 35.0 Z"/><text text-anchor="middle" x="75" y="0" class="glass" style="fill: #fcfcfc; font-family: Arial,Helvetica, sans-serif; font-size: 10px; font-weight: bold;"><tspan x="75" dy="12"> Title</tspan></text><rect id="buttontop" x="4" y="3" width="140" height="12" ry="18" rx="18" fill="url(#topshineGrad)" filter="url(#topshineBlur)"/><rect id="buttonbottom" x="4" y="26" width="140" height="4" fill="#ffffff" ry="18" rx="18" fill-opacity="0.3" filter="url(#bottomshine)"/><text x="0" y="38" class="btnclass1"><tspan x="2" dy="10"> This is a description.</tspan></text><path class="ID5a92b986-81ad-4ca9-a61a-5be963f07be1_cls" transform="translate(0,125)" d="M 0 0.0 A 0.0 0.0 0 0 1 0.0 0 L 150.0 0 A 0.0 0.0 0 0 1 150.0 0.0 L 150.0 20.0 A 5.0 5.0 0 0 1 144.0 25.0 L 5.0 25.0 A 5.0 5.0 0 0 1 0 20.0 Z"/><text x="145" y="135" style="fill: #555555; font-family: Arial,Helvetica, sans-serif; font-size: 10px; font-weight: bold; font-style: italic;" text-anchor="end"><tspan x="145" dy="-12">Steve Roach</tspan><tspan x="145" dy="-12">Mike Duffy</tspan><tspan x="145" dy="-12">Ian Cooper Rose</tspan></text><text x="145" y="145" style="fill: #555555; font-family: Arial,Helvetica, sans-serif; font-size: 10px; font-weight: bold;" text-anchor="end">1969-12-22</text></a></g> <g transform="translate(170,170)" cursor="pointer"><a xlink:href="https://docops.io/" target="_top" style='text-decoration: none; font-family:Arial; fill: #fcfcfc;'><rect x="0" y="0" fill="#fcfcfc" width="150" height="150" rx="5" ry="5" stroke="#000000" class="raise"><title>Title</title></rect><path filter="url(#buttonBlur)" class="ID5a92b986-81ad-4ca9-a61a-5be963f07be1_cls" d="M 0 5.0 A 5.0 5.0 0 0 1 5.0 0 L 145.0 0 A 5.0 5.0 0 0 1 150.0 5.0 L 150.0 35.0 A 0.0 0.0 0 0 1 150.0 35.0 L 0.0 35.0 A 0.0 0.0 0 0 1 0 35.0 Z"/><path fill="url(#overlayGrad)" class="ID5a92b986-81ad-4ca9-a61a-5be963f07be1_cls" d="M 0 5.0 A 5.0 5.0 0 0 1 5.0 0 L 145.0 0 A 5.0 5.0 0 0 1 150.0 5.0 L 150.0 35.0 A 0.0 0.0 0 0 1 150.0 35.0 L 0.0 35.0 A 0.0 0.0 0 0 1 0 35.0 Z"/><text text-anchor="middle" x="75" y="0" class="glass" style="fill: #fcfcfc; font-family: Arial,Helvetica, sans-serif; font-size: 10px; font-weight: bold;"><tspan x="75" dy="12"> Title</tspan></text><rect id="buttontop" x="4" y="3" width="140" height="12" ry="18" rx="18" fill="url(#topshineGrad)" filter="url(#topshineBlur)"/><rect id="buttonbottom" x="4" y="26" width="140" height="4" fill="#ffffff" ry="18" rx="18" fill-opacity="0.3" filter="url(#bottomshine)"/><text x="0" y="38" class="btnclass1"><tspan x="2" dy="10"> This is a description.</tspan></text><path class="ID5a92b986-81ad-4ca9-a61a-5be963f07be1_cls" transform="translate(0,125)" d="M 0 0.0 A 0.0 0.0 0 0 1 0.0 0 L 150.0 0 A 0.0 0.0 0 0 1 150.0 0.0 L 150.0 20.0 A 5.0 5.0 0 0 1 144.0 25.0 L 5.0 25.0 A 5.0 5.0 0 0 1 0 20.0 Z"/><text x="145" y="135" style="fill: #555555; font-family: Arial,Helvetica, sans-serif; font-size: 10px; font-weight: bold; font-style: italic;" text-anchor="end"><tspan x="145" dy="-12">Steve Roach</tspan><tspan x="145" dy="-12">Mike Duffy</tspan><tspan x="145" dy="-12">Ian Cooper Rose</tspan></text><text x="145" y="145" style="fill: #555555; font-family: Arial,Helvetica, sans-serif; font-size: 10px; font-weight: bold;" text-anchor="end">1969-12-22</text></a></g> <g transform="translate(330,170)" cursor="pointer"><a xlink:href="https://docops.io/" target="_top" style='text-decoration: none; font-family:Arial; fill: #fcfcfc;'><rect x="0" y="0" fill="#fcfcfc" width="150" height="150" rx="5" ry="5" stroke="#000000" class="raise"><title>Title</title></rect><path filter="url(#buttonBlur)" class="ID5a92b986-81ad-4ca9-a61a-5be963f07be1_cls" d="M 0 5.0 A 5.0 5.0 0 0 1 5.0 0 L 145.0 0 A 5.0 5.0 0 0 1 150.0 5.0 L 150.0 35.0 A 0.0 0.0 0 0 1 150.0 35.0 L 0.0 35.0 A 0.0 0.0 0 0 1 0 35.0 Z"/><path fill="url(#overlayGrad)" class="ID5a92b986-81ad-4ca9-a61a-5be963f07be1_cls" d="M 0 5.0 A 5.0 5.0 0 0 1 5.0 0 L 145.0 0 A 5.0 5.0 0 0 1 150.0 5.0 L 150.0 35.0 A 0.0 0.0 0 0 1 150.0 35.0 L 0.0 35.0 A 0.0 0.0 0 0 1 0 35.0 Z"/><text text-anchor="middle" x="75" y="0" class="glass" style="fill: #fcfcfc; font-family: Arial,Helvetica, sans-serif; font-size: 10px; font-weight: bold;"><tspan x="75" dy="12"> Title</tspan></text><rect id="buttontop" x="4" y="3" width="140" height="12" ry="18" rx="18" fill="url(#topshineGrad)" filter="url(#topshineBlur)"/><rect id="buttonbottom" x="4" y="26" width="140" height="4" fill="#ffffff" ry="18" rx="18" fill-opacity="0.3" filter="url(#bottomshine)"/><text x="0" y="38" class="btnclass1"><tspan x="2" dy="10"> This is a description.</tspan></text><path class="ID5a92b986-81ad-4ca9-a61a-5be963f07be1_cls" transform="translate(0,125)" d="M 0 0.0 A 0.0 0.0 0 0 1 0.0 0 L 150.0 0 A 0.0 0.0 0 0 1 150.0 0.0 L 150.0 20.0 A 5.0 5.0 0 0 1 144.0 25.0 L 5.0 25.0 A 5.0 5.0 0 0 1 0 20.0 Z"/><text x="145" y="135" style="fill: #555555; font-family: Arial,Helvetica, sans-serif; font-size: 10px; font-weight: bold; font-style: italic;" text-anchor="end"><tspan x="145" dy="-12">Steve Roach</tspan><tspan x="145" dy="-12">Mike Duffy</tspan><tspan x="145" dy="-12">Ian Cooper Rose</tspan></text><text x="145" y="145" style="fill: #555555; font-family: Arial,Helvetica, sans-serif; font-size: 10px; font-weight: bold;" text-anchor="end">1969-12-22</text></a></g> <g transform="translate(10,330)" cursor="pointer"><a xlink:href="https://docops.io/" target="_top" style='text-decoration: none; font-family:Arial; fill: #fcfcfc;'><rect x="0" y="0" fill="#fcfcfc" width="150" height="150" rx="5" ry="5" stroke="#000000" class="raise"><title>Title</title></rect><path filter="url(#buttonBlur)" class="ID5a92b986-81ad-4ca9-a61a-5be963f07be1_cls" d="M 0 5.0 A 5.0 5.0 0 0 1 5.0 0 L 145.0 0 A 5.0 5.0 0 0 1 150.0 5.0 L 150.0 35.0 A 0.0 0.0 0 0 1 150.0 35.0 L 0.0 35.0 A 0.0 0.0 0 0 1 0 35.0 Z"/><path fill="url(#overlayGrad)" class="ID5a92b986-81ad-4ca9-a61a-5be963f07be1_cls" d="M 0 5.0 A 5.0 5.0 0 0 1 5.0 0 L 145.0 0 A 5.0 5.0 0 0 1 150.0 5.0 L 150.0 35.0 A 0.0 0.0 0 0 1 150.0 35.0 L 0.0 35.0 A 0.0 0.0 0 0 1 0 35.0 Z"/><text text-anchor="middle" x="75" y="0" class="glass" style="fill: #fcfcfc; font-family: Arial,Helvetica, sans-serif; font-size: 10px; font-weight: bold;"><tspan x="75" dy="12"> Title</tspan></text><rect id="buttontop" x="4" y="3" width="140" height="12" ry="18" rx="18" fill="url(#topshineGrad)" filter="url(#topshineBlur)"/><rect id="buttonbottom" x="4" y="26" width="140" height="4" fill="#ffffff" ry="18" rx="18" fill-opacity="0.3" filter="url(#bottomshine)"/><text x="0" y="38" class="btnclass1"><tspan x="2" dy="10"> This is a description.</tspan></text><path class="ID5a92b986-81ad-4ca9-a61a-5be963f07be1_cls" transform="translate(0,125)" d="M 0 0.0 A 0.0 0.0 0 0 1 0.0 0 L 150.0 0 A 0.0 0.0 0 0 1 150.0 0.0 L 150.0 20.0 A 5.0 5.0 0 0 1 144.0 25.0 L 5.0 25.0 A 5.0 5.0 0 0 1 0 20.0 Z"/><text x="145" y="135" style="fill: #555555; font-family: Arial,Helvetica, sans-serif; font-size: 10px; font-weight: bold; font-style: italic;" text-anchor="end"><tspan x="145" dy="-12">Steve Roach</tspan><tspan x="145" dy="-12">Mike Duffy</tspan><tspan x="145" dy="-12">Ian Cooper Rose</tspan></text><text x="145" y="145" style="fill: #555555; font-family: Arial,Helvetica, sans-serif; font-size: 10px; font-weight: bold;" text-anchor="end">1969-12-22</text></a></g> <g transform="translate(170,330)" cursor="pointer"><a xlink:href="https://docops.io/" target="_top" style='text-decoration: none; font-family:Arial; fill: #fcfcfc;'><rect x="0" y="0" fill="#fcfcfc" width="150" height="150" rx="5" ry="5" stroke="#000000" class="raise"><title>Title</title></rect><path filter="url(#buttonBlur)" class="ID5a92b986-81ad-4ca9-a61a-5be963f07be1_cls" d="M 0 5.0 A 5.0 5.0 0 0 1 5.0 0 L 145.0 0 A 5.0 5.0 0 0 1 150.0 5.0 L 150.0 35.0 A 0.0 0.0 0 0 1 150.0 35.0 L 0.0 35.0 A 0.0 0.0 0 0 1 0 35.0 Z"/><path fill="url(#overlayGrad)" class="ID5a92b986-81ad-4ca9-a61a-5be963f07be1_cls" d="M 0 5.0 A 5.0 5.0 0 0 1 5.0 0 L 145.0 0 A 5.0 5.0 0 0 1 150.0 5.0 L 150.0 35.0 A 0.0 0.0 0 0 1 150.0 35.0 L 0.0 35.0 A 0.0 0.0 0 0 1 0 35.0 Z"/><text text-anchor="middle" x="75" y="0" class="glass" style="fill: #fcfcfc; font-family: Arial,Helvetica, sans-serif; font-size: 10px; font-weight: bold;"><tspan x="75" dy="12"> Title</tspan></text><rect id="buttontop" x="4" y="3" width="140" height="12" ry="18" rx="18" fill="url(#topshineGrad)" filter="url(#topshineBlur)"/><rect id="buttonbottom" x="4" y="26" width="140" height="4" fill="#ffffff" ry="18" rx="18" fill-opacity="0.3" filter="url(#bottomshine)"/><text x="0" y="38" class="btnclass1"><tspan x="2" dy="10"> This is a description.</tspan></text><path class="ID5a92b986-81ad-4ca9-a61a-5be963f07be1_cls" transform="translate(0,125)" d="M 0 0.0 A 0.0 0.0 0 0 1 0.0 0 L 150.0 0 A 0.0 0.0 0 0 1 150.0 0.0 L 150.0 20.0 A 5.0 5.0 0 0 1 144.0 25.0 L 5.0 25.0 A 5.0 5.0 0 0 1 0 20.0 Z"/><text x="145" y="135" style="fill: #555555; font-family: Arial,Helvetica, sans-serif; font-size: 10px; font-weight: bold; font-style: italic;" text-anchor="end"><tspan x="145" dy="-12">Steve Roach</tspan><tspan x="145" dy="-12">Mike Duffy</tspan><tspan x="145" dy="-12">Ian Cooper Rose</tspan></text><text x="145" y="145" style="fill: #555555; font-family: Arial,Helvetica, sans-serif; font-size: 10px; font-weight: bold;" text-anchor="end">1969-12-22</text></a></g> <g transform="translate(330,330)" cursor="pointer"><a xlink:href="https://docops.io/" target="_top" style='text-decoration: none; font-family:Arial; fill: #fcfcfc;'><rect x="0" y="0" fill="#fcfcfc" width="150" height="150" rx="5" ry="5" stroke="#000000" class="raise"><title>Title</title></rect><path filter="url(#buttonBlur)" class="ID5a92b986-81ad-4ca9-a61a-5be963f07be1_cls" d="M 0 5.0 A 5.0 5.0 0 0 1 5.0 0 L 145.0 0 A 5.0 5.0 0 0 1 150.0 5.0 L 150.0 35.0 A 0.0 0.0 0 0 1 150.0 35.0 L 0.0 35.0 A 0.0 0.0 0 0 1 0 35.0 Z"/><path fill="url(#overlayGrad)" class="ID5a92b986-81ad-4ca9-a61a-5be963f07be1_cls" d="M 0 5.0 A 5.0 5.0 0 0 1 5.0 0 L 145.0 0 A 5.0 5.0 0 0 1 150.0 5.0 L 150.0 35.0 A 0.0 0.0 0 0 1 150.0 35.0 L 0.0 35.0 A 0.0 0.0 0 0 1 0 35.0 Z"/><text text-anchor="middle" x="75" y="0" class="glass" style="fill: #fcfcfc; font-family: Arial,Helvetica, sans-serif; font-size: 10px; font-weight: bold;"><tspan x="75" dy="12"> Title</tspan></text><rect id="buttontop" x="4" y="3" width="140" height="12" ry="18" rx="18" fill="url(#topshineGrad)" filter="url(#topshineBlur)"/><rect id="buttonbottom" x="4" y="26" width="140" height="4" fill="#ffffff" ry="18" rx="18" fill-opacity="0.3" filter="url(#bottomshine)"/><text x="0" y="38" class="btnclass1"><tspan x="2" dy="10"> This is a description.</tspan></text><path class="ID5a92b986-81ad-4ca9-a61a-5be963f07be1_cls" transform="translate(0,125)" d="M 0 0.0 A 0.0 0.0 0 0 1 0.0 0 L 150.0 0 A 0.0 0.0 0 0 1 150.0 0.0 L 150.0 20.0 A 5.0 5.0 0 0 1 144.0 25.0 L 5.0 25.0 A 5.0 5.0 0 0 1 0 20.0 Z"/><text x="145" y="135" style="fill: #555555; font-family: Arial,Helvetica, sans-serif; font-size: 10px; font-weight: bold; font-style: italic;" text-anchor="end"><tspan x="145" dy="-12">Steve Roach</tspan><tspan x="145" dy="-12">Mike Duffy</tspan><tspan x="145" dy="-12">Ian Cooper Rose</tspan></text><text x="145" y="145" style="fill: #555555; font-family: Arial,Helvetica, sans-serif; font-size: 10px; font-weight: bold;" text-anchor="end">1969-12-22</text></a></g></g></svg>