<svg xmlns="http://www.w3.org/2000/svg" width="970" height="550"
     viewBox="0 0 1000 550" xmlns:xlink="http://www.w3.org/1999/xlink">

    <defs>
        <filter id="Bevel" filterUnits="objectBoundingBox" x="-10%" y="-10%" width="150%" height="150%">
            <feGaussianBlur in="SourceAlpha" stdDeviation="3" result="blur"/>
            <feSpecularLighting in="blur" surfaceScale="5" specularConstant="0.5" specularExponent="10" result="specOut" lighting-color="white">
                <fePointLight x="-5000" y="-10000" z="20000"/>
            </feSpecularLighting>
            <feComposite in="specOut" in2="SourceAlpha" operator="in" result="specOut2"/>
            <feComposite in="SourceGraphic" in2="specOut2" operator="arithmetic" k1="0" k2="1" k3="1" k4="0" result="litPaint" />
        </filter>
        <filter id="Bevel2" filterUnits="objectBoundingBox" x="-10%" y="-10%" width="150%" height="150%">
            <feGaussianBlur in="SourceAlpha" stdDeviation="0.5" result="blur"/>
            <feSpecularLighting in="blur" surfaceScale="5" specularConstant="0.5" specularExponent="10" result="specOut" lighting-color="white">
                <fePointLight x="-5000" y="-10000" z="0000"/>
            </feSpecularLighting>
            <feComposite in="specOut" in2="SourceAlpha" operator="in" result="specOut2"/>
            <feComposite in="SourceGraphic" in2="specOut2" operator="arithmetic" k1="0" k2="1" k3="1" k4="0" result="litPaint" />
        </filter>

        <linearGradient id="gradient" x2="1" y2="1">
            <stop class="stop1" offset="0%" stop-color="#cd8cd8"/>
            <stop class="stop2" offset="50%" stop-color="#b453c4"/>
            <stop class="stop3" offset="100%" stop-color="#9C1AB1"/>
        </linearGradient>
        <linearGradient id="gradient2" x2="1" y2="1">
            <stop class="stop1" offset="0%" stop-color="#8c9bd6"/>
            <stop class="stop2" offset="50%" stop-color="#5369c1"/>
            <stop class="stop3" offset="100%" stop-color="#1a37ad"/>
        </linearGradient>
        <linearGradient id="gradient3" x2="1" y2="1">
            <stop class="stop1" offset="0%" stop-color="#93d6e7"/>
            <stop class="stop2" offset="50%" stop-color="#5dc1db"/>
            <stop class="stop3" offset="100%" stop-color="#27adcf"/>
        </linearGradient>
        <style type="text/css">
            .basecard {
                -webkit-filter: drop-shadow( 3px 3px 2px rgba(0, 0, 0, .3));
                filter: drop-shadow( 3px 3px 2px rgba(0, 0, 0, .3));
            }
            .basecard:hover {
                cursor: pointer;
                stroke-dasharray: 1;
            }

        </style>
        <path id="outerBox" fill="#ffffff"  d="M 0 18.0 A 18.0 18.0 0 0 1 18.0 0 L 282.0 0 A 18.0 18.0 0 0 1 300.0 18.0 L 300.0 382.0 A 18.0 18.0 0 0 1 282.0 400.0 L 18.0 400.0 A 18.0 18.0 0 0 1 0 382.0 Z">
            <title>Hello</title>
        </path>
        <g id="topTextBox">
            <path fill="#ffffff" d="M 0 18.0 A 18.0 18.0 0 0 1 18.0 0 L 282.0 0 A 18.0 18.0 0 0 1 300.0 18.0 L 300.0 95.5 A 0.0 0.0 0 0 1 300.0 95.5 L 0.0 95.5 A 0.0 0.0 0 0 1 0 95.5 Z"/>
        </g>
        <path id="bottomTextBox" d="M 0 0.0 A 0.0 0.0 0 0 1 0.0 0 L 300.0 0 A 0.0 0.0 0 0 1 300.0 0.0 L 300.0 95.5 A 0.0 0.0 0 0 1 300.0 95.5 L 0.0 95.5 A 0.0 0.0 0 0 1 0 95.5 Z"/>
        <path id="singleBox" d="M 0 18.0 A 18.0 18.0 0 0 1 18.0 0 L 282.0 0 A 18.0 18.0 0 0 1 300.0 18.0 L 300.0 191.0 A 0.0 0.0 0 0 1 300.0 191.0 L 0.0 191.0 A 0.0 0.0 0 0 1 0 191.0 Z"/>


    </defs>
    <a href="https://www.google.com" target="_top">
    <g transform="translate(10,10)" class="basecard">
        <use xlink:href="#outerBox" stroke="#9C1AB1"><title>HELLO</title></use>
        <use xlink:href="#topTextBox"/>
        <text text-anchor="middle" x="150" y="67.75" filter="url(#Bevel2)"
              style="fill: #9C1AB1; font: bold 60px Arial, Helvetica, sans-serif;">Hello
        </text>

        <g transform="translate(0,95.5)">
            <use xlink:href="#bottomTextBox" stroke="#1a37ad" fill="url(#gradient)"/>

            <text text-anchor="middle" x="150" y="67.75" filter="url(#Bevel2)"
                  style="fill: #ffffff; font: bold 60px Arial, Helvetica, sans-serif;" >World
            </text>
        </g>
        <g transform="translate(0,190)">
            <text x="10" y="20" style="font: 12px Arial, Helvetica, sans-serif;" >
                <tspan font-weight="bold" >This is my title</tspan>
                <tspan x="10" dy="14" font-style="italic" font-weight="bold" fill="#6526FE">Type of Card</tspan>
                <tspan x="10" dy="14">Description</tspan>
                <tspan x="10" dy="14">Description</tspan>
                <tspan x="10" dy="14">Description</tspan>
                <tspan x="10" dy="14">Description</tspan>
                <tspan x="10" dy="14">Description</tspan>
                <tspan x="10" dy="14">Description</tspan>
                <tspan x="10" dy="14">Author</tspan>
                <tspan x="10" dy="14">Author</tspan>
                <tspan x="10" dy="14">Author</tspan>
                <tspan x="10" dy="14">Date</tspan>
            </text>x
        </g>
    </g>
    </a>

    <a href="https://www.google.com" target="_top">
    <g transform="translate(330,10)" class="basecard">
        <use xlink:href="#outerBox" stroke="#27adcf"><title>HELLO</title></use>
        <use xlink:href="#singleBox"  fill="url(#gradient3)"/>
        <g transform="translate(0,190)">
            <text x="10" y="20" style="font: 12px Arial, Helvetica, sans-serif;" >
                <tspan style="font: 14px Arial, Helvetica, sans-serif;" font-weight="bold" fill="url(#gradient3)">This is my title</tspan>
                <tspan x="10" dy="14" font-style="italic" font-weight="bold" fill="#6526FE">Type of Card</tspan>
                <tspan x="10" dy="14">Description</tspan>
                <tspan x="10" dy="14">Description</tspan>
                <tspan x="10" dy="14">Description</tspan>
                <tspan x="10" dy="14">Description</tspan>
                <tspan x="10" dy="14">Description</tspan>
                <tspan x="10" dy="14">Description</tspan>
                <tspan x="10" dy="14">Author</tspan>
                <tspan x="10" dy="14">Author</tspan>
                <tspan x="10" dy="14">Author</tspan>
                <tspan x="10" dy="14">Date</tspan>
            </text>
        </g>
    </g>
    </a>
      <g transform="translate(650,10)" class="basecard">
          <use xlink:href="#outerBox" stroke="#1a37ad"/>
          <use xlink:href="#topTextBox"/>
          <text text-anchor="middle" x="150" y="67.75" filter="url(#Bevel2)"
                style="fill: #1a37ad; font: bold 60px Arial, Helvetica, sans-serif;">Hello
          </text>

        <g transform="translate(0,95.5)">
            <use xlink:href="#bottomTextBox" stroke="#1a37ad" fill="url(#gradient2)"/>

            <text text-anchor="middle" x="150" y="67.75" filter="url(#Bevel2)"
                  style="fill: #ffffff; font: bold 60px Arial, Helvetica, sans-serif;" >World
            </text>
        </g>
        <g transform="translate(0,190)">
            <path class="basecard" stroke="#1a37ad"  fill="#ffffff" d=
                    "M 0 0.0 A 0.0 0.0 0 0 1 0.0 0 L 300.0 0 A 0.0 0.0 0 0 1 300.0 0.0 L 300.0 191.0 A 18.0 18.0 0 0 1 282.0 209.0 L 18.0 209.0 A 18.0 18.0 0 0 1 0 191.0 Z"/>
            <text x="10" y="20" style="font: 12px Arial, Helvetica, sans-serif;" >
                <tspan font-weight="bold" filter="url(#Bevel2)">This is my title</tspan>
                <tspan x="10" dy="14" font-style="italic" font-weight="bold" filter="url(#Bevel2)" fill="#6526FE">Type of Card</tspan>
                <tspan x="10" dy="14">Description</tspan>
                <tspan x="10" dy="14">Description</tspan>
                <tspan x="10" dy="14">Description</tspan>
                <tspan x="10" dy="14">Description</tspan>
                <tspan x="10" dy="14">Description</tspan>
                <tspan x="10" dy="14">Description</tspan>
                <tspan x="10" dy="14">Author</tspan>
                <tspan x="10" dy="14">Author</tspan>
                <tspan x="10" dy="14">Author</tspan>
                <tspan x="10" dy="14">Date</tspan>
            </text>
        </g>
    </g>

</svg>