<?xml version="1.0" standalone="no"?>
<!--
  - Copyright 2020 The DocOps Consortium
  -
  - Licensed under the Apache License, Version 2.0 (the "License");
  - you may not use this file except in compliance with the License.
  - You may obtain a copy of the License at
  -
  -     http://www.apache.org/licenses/LICENSE-2.0
  -
  - Unless required by applicable law or agreed to in writing, software
  - distributed under the License is distributed on an "AS IS" BASIS,
  - WITHOUT WARRANTIES OR CONDITIONS OF ANY KIND, either express or implied.
  - See the License for the specific language governing permissions and
  - limitations under the License.
  -->
<svg xmlns="http://www.w3.org/2000/svg" width="970" height="500"
     viewBox="0 0 1000 500">
    <filter id="shadow" color-interpolation-filters="sRGB">
        <feDropShadow dx="2" dy="2" stdDeviation="3" flood-opacity="0.5"/>
    </filter>
    <defs>
        <filter id="buttonBlur">
            <feGaussianBlur in="SourceAlpha" stdDeviation="2" result="blur"/>
            <feOffset in="blur" dy="2" result="offsetBlur"/>
            <feMerge>
                <feMergeNode in="offsetBlur"/>
                <feMergeNode in="SourceGraphic"/>
            </feMerge>
        </filter>

        <linearGradient id="overlayGrad" gradientUnits="userSpaceOnUse" x1="95" y1="-20" x2="95" y2="70">
            <stop offset="0" stop-color="#000000" stop-opacity="0.5"/>
            <stop offset="1" stop-color="#000000" stop-opacity="0"/>
        </linearGradient>

        <filter id="topshineBlur">
            <feGaussianBlur stdDeviation="0.93"/>
        </filter>

        <linearGradient id="topshineGrad" gradientUnits="userSpaceOnUse" x1="95" y1="0" x2="95" y2="40">
            <stop offset="0" stop-color="#ffffff" stop-opacity="1"/>
            <stop offset="1" stop-color="#ffffff" stop-opacity="0"/>
        </linearGradient>

        <filter id="bottomshine">
            <feGaussianBlur stdDeviation="0.95"/>
        </filter>
        <linearGradient id="first" x2="1" y2="1"><stop class="stop1" offset="0%" stop-color="#fdd9c9"/><stop class="stop2" offset="50%" stop-color="#fcc6ae"/><stop class="stop3" offset="100%" stop-color="#fbb394"/></linearGradient><linearGradient id="second" x2="1" y2="1"><stop class="stop1" offset="0%" stop-color="#f5e7d0"/><stop class="stop2" offset="50%" stop-color="#f0dbb8"/><stop class="stop3" offset="100%" stop-color="#eccfa1"/></linearGradient>
    </defs>

    <style>
        .glass {overflow: hidden;color: white;text-shadow: 0 1px 2px rgba(0, 0, 0, 0.7);background-image: radial-gradient(circle at center, rgba(0, 167, 225, 0.25), rgba(0, 110, 149, 0.5));box-shadow: 0 5px 10px rgba(0, 0, 0, 0.75), inset 0 0 0 2px rgba(0, 0, 0, 0.3), inset 0 -6px 6px -3px rgba(0, 129, 174, 0.2);position: relative;}  .glass:after {content: "";background: rgba(0, 167, 225, 0.2);display: block;position: absolute;z-index: 0;height: 100%;width: 100%;top: 0;left: 0;backdrop-filter: blur(3px) saturate(400%);-webkit-backdrop-filter: blur(3px) saturate(400%);}  .glass:before {content: "";display: block;position: absolute;width: calc(100% - 4px);height: 35px;background-image: linear-gradient(rgba(255, 255, 255, 0.7), rgba(255, 255, 255, 0));top: 2px;left: 2px;border-radius: 30px 30px 200px 200px;opacity: 0.7;}  .glass:hover {text-shadow: 0 1px 2px rgba(0, 0, 0, 0.9);}  .glass:hover:before {opacity: 1;}  .glass:active {text-shadow: 0 0 2px rgba(0, 0, 0, 0.9);box-shadow: 0 3px 8px rgba(0, 0, 0, 0.75), inset 0 0 0 2px rgba(0, 0, 0, 0.3), inset 0 -6px 6px -3px rgba(0, 129, 174, 0.2);}  .glass:active:before {height: 25px;}
    </style>
    <script>
        function showTooltip(evt, text) {
            let tooltip = document.getElementById("tooltip");
            tooltip.innerHTML = text;
            tooltip.style.display = "block";
            tooltip.style.left = evt.pageX + 10 + 'px';
            tooltip.style.top = evt.pageY + 10 + 'px';
        }

        function hideTooltip() {
            var tooltip = document.getElementById("tooltip");
            tooltip.style.display = "none";
        }
    </script>

    <g transform="translate(10,10)">
        <rect x="0" y="0" fill="#fcfcfc" width="150" height="150" rx="5" ry="5" class="card" stroke="#000000">
            <title>Long Title to show description in html popup.</title>
        </rect>
        <path filter="url(#buttonBlur)" fill="url(#first)" d="M 0 5.0 A 5.0 5.0 0 0 1 5.0 0 L 145.0 0 A 5.0 5.0 0 0 1 150.0 5.0 L 150.0 35.0 A 0.0 0.0 0 0 1 150.0 35.0 L 0.0 35.0 A 0.0 0.0 0 0 1 0 35.0 Z"/>
        <path fill="url(#overlayGrad)" d="M 0 5.0 A 5.0 5.0 0 0 1 5.0 0 L 145.0 0 A 5.0 5.0 0 0 1 150.0 5.0 L 150.0 35.0 A 0.0 0.0 0 0 1 150.0 35.0 L 0.0 35.0 A 0.0 0.0 0 0 1 0 35.0 Z"/>
        <text text-anchor="middle" x="75" y="0" class="glass" style="fill: #fcfcfc; font-family: Arial,Helvetica, sans-serif; font-size: 10px; font-weight: bold;">
            <tspan x="75" dy="12">Current Work</tspan>
            <tspan x="75" dy="12">OnGoing Initiatives</tspan>
        </text>

        <text x="0" y="38" font-family="Arial,Helvetica, sans-serif" font-size="10">
            <tspan x="2" dy="12"> The grass is always greener on</tspan>
            <tspan x="2" dy="12">the other side of the fence</tspan>
        </text>
        <rect id="buttontop" x="4" y="3" width="140" height="12" ry="18" rx="18" fill="url(#topshineGrad)" filter="url(#topshineBlur)"/>
        <rect id="buttonbottom" x="4" y="26" width="140" height="4" fill="#ffffff" ry="18" rx="18" fill-opacity="0.3" filter="url(#bottomshine)"/>

        <path transform="translate(0,125)" fill="url(#first)" d="M 0 0.0 A 0.0 0.0 0 0 1 0.0 0 L 150.0 0 A 0.0 0.0 0 0 1 150.0 0.0 L 150.0 20.0 A 5.0 5.0 0 0 1 145.0 25.0 L 5.0 25.0 A 5.0 5.0 0 0 1 0 20.0 Z"/>
        <text x="145" y="125" style="fill: #555555; font-family: Arial,Helvetica, sans-serif; font-size: 10px; font-weight: bold; font-style: italic;"  text-anchor="end">Steve Roach</text>
        <text x="145" y="145" style="fill: #555555; font-family: Arial,Helvetica, sans-serif; font-size: 10px; font-weight: bold;"  text-anchor="end">12/12/2023</text>
    </g>
    <g transform="translate(170,10)">
        <rect x="0" y="0" fill="#fcfcfc" width="150" height="150" rx="5" ry="5" class="card">
            <title>Long Title to show description in html popup.</title>
        </rect>
        <path filter="url(#buttonBlur)" fill="url(#second)" d="M 0 5.0 A 5.0 5.0 0 0 1 5.0 0 L 145.0 0 A 5.0 5.0 0 0 1 150.0 5.0 L 150.0 35.0 A 0.0 0.0 0 0 1 150.0 35.0 L 0.0 35.0 A 0.0 0.0 0 0 1 0 35.0 Z"/>
        <path  fill="url(#overlayGrad)" d="M 0 5.0 A 5.0 5.0 0 0 1 5.0 0 L 145.0 0 A 5.0 5.0 0 0 1 150.0 5.0 L 150.0 35.0 A 0.0 0.0 0 0 1 150.0 35.0 L 0.0 35.0 A 0.0 0.0 0 0 1 0 35.0 Z"/>
        <text text-anchor="middle" x="75" y="0" class="glass" style="fill: #fcfcfc; font-family: Arial,Helvetica, sans-serif; font-size: 10px; font-weight: bold;">
            <tspan x="75" dy="12">Current Work</tspan>
            <tspan x="75" dy="12">OnGoing Initiatives</tspan>
        </text>

        <text x="0" y="38" font-family="Arial,Helvetica, sans-serif" font-size="10">
            <tspan x="2" dy="12"> The grass is always greener on</tspan>
            <tspan x="2" dy="12">the other side of the fence</tspan>

        </text>
        <rect id="buttontop" x="4" y="3" width="140" height="12" ry="18" rx="18" fill="url(#topshineGrad)" filter="url(#topshineBlur)"/>
        <rect id="buttonbottom" x="4" y="26" width="140" height="4" fill="#ffffff" ry="18" rx="18" fill-opacity="0.3" filter="url(#bottomshine)"/>

        <path transform="translate(0,125)" fill="url(#second)" d="M 0 0.0 A 0.0 0.0 0 0 1 0.0 0 L 150.0 0 A 0.0 0.0 0 0 1 150.0 0.0 L 150.0 20.0 A 5.0 5.0 0 0 1 145.0 25.0 L 5.0 25.0 A 5.0 5.0 0 0 1 0 20.0 Z"/>
        <text x="145" y="125" style="fill: #555555; font-family: Arial,Helvetica, sans-serif; font-size: 10px; font-weight: bold; font-style: italic;"  text-anchor="end">Steve Roach</text>
        <text x="145" y="145" style="fill: #555555; font-family: Arial,Helvetica, sans-serif; font-size: 10px; font-weight: bold;"  text-anchor="end">12/12/2023</text>
    </g>
    <g transform="translate(330,10)">
        <rect x="0" y="0" fill="#fcfcfc" width="150" height="150" rx="5" ry="5" class="card" stroke="#000000">
            <title>Long Title to show description in html popup.</title>
        </rect>
        <path filter="url(#buttonBlur)"  fill="url(#first)" d="M 0 5.0 A 5.0 5.0 0 0 1 5.0 0 L 145.0 0 A 5.0 5.0 0 0 1 150.0 5.0 L 150.0 35.0 A 0.0 0.0 0 0 1 150.0 35.0 L 0.0 35.0 A 0.0 0.0 0 0 1 0 35.0 Z"/>
        <path id="buttongrad"  fill="url(#overlayGrad)" d="M 0 5.0 A 5.0 5.0 0 0 1 5.0 0 L 145.0 0 A 5.0 5.0 0 0 1 150.0 5.0 L 150.0 35.0 A 0.0 0.0 0 0 1 150.0 35.0 L 0.0 35.0 A 0.0 0.0 0 0 1 0 35.0 Z"/>

        <text text-anchor="middle" x="75" y="0" class="glass" style="fill: #000000; font-family: Arial,Helvetica, sans-serif; font-size: 10px; font-weight: bold;">
            <tspan x="75" dy="12">Current Work</tspan>
            <tspan x="75" dy="12">OnGoing Initiatives</tspan>
        </text>
        <rect id="buttontop" x="4" y="3" width="140" height="12" ry="18" rx="18" fill="url(#topshineGrad)" filter="url(#topshineBlur)"/>
        <rect id="buttonbottom" x="4" y="26" width="140" height="4" fill="#ffffff" ry="18" rx="18" fill-opacity="0.3" filter="url(#bottomshine)"/>
        <text x="0" y="38" font-family="Arial,Helvetica, sans-serif" font-size="10">
            <tspan x="2" dy="12"> The grass is always greener on</tspan>
            <tspan x="2" dy="12">the other side of the fence</tspan>
        </text>
        <path transform="translate(0,125)" fill="url(#first)" d="M 0 0.0 A 0.0 0.0 0 0 1 0.0 0 L 150.0 0 A 0.0 0.0 0 0 1 150.0 0.0 L 150.0 20.0 A 5.0 5.0 0 0 1 145.0 25.0 L 5.0 25.0 A 5.0 5.0 0 0 1 0 20.0 Z"/>
        <text x="145" y="125" style="fill: #555555; font-family: Arial,Helvetica, sans-serif; font-size: 10px; font-weight: bold; font-style: italic;"  text-anchor="end">Steve Roach</text>
        <text x="145" y="145" style="fill: #555555; font-family: Arial,Helvetica, sans-serif; font-size: 10px; font-weight: bold;"  text-anchor="end">12/12/2023</text>

    </g>
</svg>